<svg xmlns="http://www.w3.org/2000/svg" width="100%" height="100%" viewBox="0 0 150 150" version="1.1" class="iconadda">
<g>
<g id="Linkedin_99M7hGu-0"><path style=" stroke:none;fill-rule:nonzero;fill:#FFFFFF;fill-opacity:1;" d="M 134.898438 4.707031 L 15.085938 4.707031 C 15.046875 4.707031 15.007812 4.707031 14.960938 4.707031 C 9.339844 4.707031 4.78125 9.226562 4.714844 14.828125 L 4.714844 135.164062 C 4.78125 140.769531 9.339844 145.292969 14.960938 145.292969 C 15.007812 145.292969 15.050781 145.292969 15.097656 145.292969 L 134.886719 145.292969 C 134.925781 145.292969 134.972656 145.292969 135.019531 145.292969 C 140.644531 145.292969 145.214844 140.777344 145.304688 135.171875 L 145.304688 14.835938 C 145.214844 9.226562 140.644531 4.707031 135.015625 4.707031 C 134.96875 4.707031 134.925781 4.707031 134.878906 4.707031 Z M 46.40625 124.507812 L 25.527344 124.507812 L 25.527344 57.425781 L 46.40625 57.425781 Z M 35.972656 48.25 C 29.292969 48.25 23.882812 42.835938 23.882812 36.160156 C 23.882812 29.484375 29.296875 24.070312 35.972656 24.070312 C 42.648438 24.070312 48.0625 29.480469 48.0625 36.15625 C 48.0625 36.160156 48.0625 36.164062 48.0625 36.175781 C 48.0625 42.847656 42.652344 48.253906 35.984375 48.253906 C 35.980469 48.253906 35.976562 48.253906 35.96875 48.253906 Z M 124.480469 124.507812 L 103.664062 124.507812 L 103.664062 91.886719 C 103.664062 84.105469 103.503906 74.097656 92.816406 74.097656 C 81.960938 74.097656 80.304688 82.5625 80.304688 91.316406 L 80.304688 124.511719 L 59.488281 124.511719 L 59.488281 57.429688 L 79.484375 57.429688 L 79.484375 66.574219 L 79.757812 66.574219 C 83.640625 60.035156 90.660156 55.722656 98.691406 55.722656 C 98.976562 55.722656 99.257812 55.726562 99.539062 55.738281 L 99.496094 55.738281 C 120.589844 55.738281 124.488281 69.621094 124.488281 87.691406 L 124.488281 124.511719 Z M 124.480469 124.507812 " />
</g></g>
</svg>