<svg xmlns="http://www.w3.org/2000/svg" width="100%" height="100%" viewBox="0 0 384 384" version="1.1" class="iconadda">
<g>
<g id="Return_free_icon_e9StbFe-0"><path style=" stroke:none;fill-rule:nonzero;fill: #2E4343;fill-opacity:1;" d="M 173.25 105.75 L 210.75 105.75 L 210.75 162.75 L 173.25 162.75 Z M 173.25 105.75 " />
</g><g id="Return_free_icon_e9StbFe-1"><path style=" stroke:none;fill-rule:nonzero;fill: #2E4343;fill-opacity:1;" d="M 87 105.75 C 80.785156 105.75 75.75 110.785156 75.75 117 L 75.75 267 C 75.75 273.214844 80.785156 278.25 87 278.25 L 297 278.25 C 303.214844 278.25 308.25 273.214844 308.25 267 L 308.25 117 C 308.25 110.785156 303.214844 105.75 297 105.75 L 233.25 105.75 L 233.25 174 C 233.25 180.214844 228.214844 185.25 222 185.25 L 162 185.25 C 155.785156 185.25 150.75 180.214844 150.75 174 L 150.75 105.75 Z M 87 105.75 " />
</g><g id="Return_free_icon_e9StbFe-2"><path style=" stroke:none;fill-rule:nonzero;fill: #2E4343;fill-opacity:1;" d="M 147.453125 304.792969 C 143.058594 300.398438 135.9375 300.398438 131.542969 304.792969 C 127.148438 309.1875 127.148438 316.308594 131.542969 320.703125 L 142.339844 331.5 L 41.25 331.5 C 30.910156 331.5 22.5 323.089844 22.5 312.75 L 22.5 71.25 C 22.5 60.910156 30.910156 52.5 41.25 52.5 L 169.5 52.5 C 175.714844 52.5 180.75 47.464844 180.75 41.25 C 180.75 35.035156 175.714844 30 169.5 30 L 41.25 30 C 18.503906 30 0 48.503906 0 71.25 L 0 312.75 C 0 335.496094 18.503906 354 41.25 354 L 142.339844 354 L 131.546875 364.796875 C 127.152344 369.191406 127.152344 376.3125 131.546875 380.707031 C 133.742188 382.902344 136.621094 384 139.5 384 C 142.378906 384 145.257812 382.902344 147.453125 380.703125 L 177.453125 350.703125 C 181.847656 346.308594 181.847656 339.1875 177.453125 334.792969 Z M 342.75 30 L 241.660156 30 L 252.453125 19.203125 C 256.847656 14.808594 256.847656 7.6875 252.453125 3.292969 C 248.058594 -1.101562 240.9375 -1.101562 236.542969 3.292969 L 206.542969 33.292969 C 202.148438 37.6875 202.148438 44.808594 206.542969 49.203125 L 236.542969 79.203125 C 238.742188 81.402344 241.621094 82.5 244.5 82.5 C 247.378906 82.5 250.257812 81.402344 252.453125 79.203125 C 256.847656 74.808594 256.847656 67.6875 252.453125 63.292969 L 241.660156 52.5 L 342.75 52.5 C 353.089844 52.5 361.5 60.910156 361.5 71.25 L 361.5 312.75 C 361.5 323.089844 353.089844 331.5 342.75 331.5 L 214.5 331.5 C 208.285156 331.5 203.25 336.535156 203.25 342.75 C 203.25 348.964844 208.285156 354 214.5 354 L 342.75 354 C 365.496094 354 384 335.496094 384 312.75 L 384 71.25 C 384 48.503906 365.496094 30 342.75 30 Z M 342.75 30 " />
</g></g>
</svg>