<svg xmlns="http://www.w3.org/2000/svg" width="100%" height="100%" viewBox="0 0 384 384" version="1.1" class="iconadda">
<g>
<g id="Shipping-fast_free_interface_icon_1N2sMIv-0"><path style=" stroke:none;fill-rule:nonzero;fill: #2E4343;fill-opacity:1;" d="M 304 80 L 270.769531 80 C 268.097656 64.890625 261.132812 50.871094 250.710938 39.613281 C 240.285156 28.355469 226.84375 20.335938 211.984375 16.511719 C 206.449219 15.089844 200.578125 16.726562 196.578125 20.804688 C 192.578125 24.886719 191.0625 30.789062 192.59375 36.292969 C 194.128906 41.796875 198.484375 46.066406 204.015625 47.488281 C 214.320312 50.148438 223.449219 56.164062 229.964844 64.578125 C 236.476562 72.996094 240.007812 83.339844 240 93.984375 L 240 272 L 64 272 C 46.351562 272 32 257.648438 32 240 L 32 176 L 72 176 C 77.714844 176 83 172.949219 85.855469 168 C 88.714844 163.050781 88.714844 156.949219 85.855469 152 C 83 147.050781 77.714844 144 72 144 L 32 144 C 14.351562 144 0 158.351562 0 176 L 0 240 C 0.0195312 254.339844 4.84375 268.257812 13.707031 279.53125 C 22.566406 290.808594 34.949219 298.785156 48.878906 302.191406 C 46.003906 318.496094 50.480469 335.242188 61.109375 347.933594 C 71.742188 360.628906 87.441406 367.972656 104 368 C 120.238281 367.972656 135.667969 360.910156 146.292969 348.632812 C 156.921875 336.355469 161.707031 320.074219 159.40625 304 L 224.59375 304 C 222.292969 320.074219 227.078125 336.355469 237.707031 348.632812 C 248.332031 360.910156 263.761719 367.972656 280 368 C 296.558594 367.972656 312.257812 360.628906 322.890625 347.933594 C 333.519531 335.242188 337.996094 318.496094 335.121094 302.191406 C 349.050781 298.785156 361.433594 290.808594 370.292969 279.53125 C 379.15625 268.257812 383.980469 254.339844 384 240 L 384 160 C 384 115.886719 348.113281 80 304 80 Z M 352 160 L 352 176 L 272 176 L 272 112 L 304 112 C 330.464844 112 352 133.535156 352 160 Z M 128 312 C 128 325.230469 117.230469 336 104 336 C 90.769531 336 80 325.230469 80 312 C 80 308.976562 80.59375 306.304688 81.457031 304 L 126.558594 304 C 127.421875 306.304688 128.015625 308.976562 128.015625 312 Z M 280 336 C 266.769531 336 256 325.230469 256 312 C 256 308.976562 256.59375 306.304688 257.457031 304 L 302.5625 304 C 303.425781 306.304688 304.019531 308.976562 304.019531 312 C 304.019531 325.230469 293.25 336 280.019531 336 Z M 320 272 L 272 272 L 272 208 L 352 208 L 352 240 C 352 257.648438 337.648438 272 320 272 Z M 0 32 C 0 27.757812 1.6875 23.6875 4.6875 20.6875 C 7.6875 17.6875 11.757812 16 16 16 L 146.464844 16 C 152.179688 16 157.460938 19.050781 160.320312 24 C 163.179688 28.949219 163.179688 35.050781 160.320312 40 C 157.460938 44.949219 152.179688 48 146.464844 48 L 16 48 C 11.757812 48 7.6875 46.3125 4.6875 43.3125 C 1.6875 40.3125 0 36.242188 0 32 Z M 0 96 C 0 91.757812 1.6875 87.6875 4.6875 84.6875 C 7.6875 81.6875 11.757812 80 16 80 L 114.464844 80 C 120.179688 80 125.460938 83.050781 128.320312 88 C 131.179688 92.949219 131.179688 99.050781 128.320312 104 C 125.460938 108.949219 120.179688 112 114.464844 112 L 16 112 C 11.757812 112 7.6875 110.3125 4.6875 107.3125 C 1.6875 104.3125 0 100.242188 0 96 Z M 0 96 " />
</g></g>
</svg>