<svg xmlns="http://www.w3.org/2000/svg" width="100%" height="100%" viewBox="0 0 384 384" version="1.1" class="iconadda">
<g>
<g id="Tracking_free_icon_iN0joc8-0"><path style=" stroke:none;fill-rule:nonzero;fill:#2E4343;fill-opacity:1;" d="M 170.960938 161.660156 C 179.660156 170.359375 186.71875 180.265625 192 190.996094 C 197.277344 180.265625 204.339844 170.363281 213.039062 161.660156 C 217.292969 157.40625 221.886719 153.503906 226.773438 149.988281 C 223.824219 105.414062 187.449219 69.820312 142.550781 68.113281 C 122.179688 82.050781 107.953125 104.339844 104.847656 130.007812 C 129.828125 132.664062 152.96875 143.664062 170.964844 161.660156 Z M 105.039062 152.707031 C 110.398438 191.46875 141.15625 222.222656 179.914062 227.582031 C 174.554688 188.820312 143.796875 158.066406 105.039062 152.707031 Z M 248.027344 138.039062 C 257.878906 133.871094 268.34375 131.160156 279.15625 130.007812 C 273.898438 86.582031 236.820312 52.824219 192 52.824219 C 188.097656 52.824219 184.253906 53.082031 180.484375 53.578125 C 215.59375 67.816406 241.765625 99.628906 248.027344 138.035156 Z M 248.027344 138.039062 " />
</g><g id="Tracking_free_icon_iN0joc8-1"><path style=" stroke:none;fill-rule:nonzero;fill:#2E4343;fill-opacity:1;" d="M 192 0 C 114.460938 0 51.375 63.082031 51.375 140.625 C 51.375 170.242188 60.480469 198.574219 77.703125 222.554688 L 77.746094 222.617188 L 192 384 L 306.296875 222.554688 C 323.519531 198.574219 332.625 170.242188 332.625 140.625 C 332.625 63.085938 269.542969 0 192 0 Z M 192 250.921875 C 131.183594 250.921875 81.703125 201.441406 81.703125 140.625 C 81.703125 79.804688 131.183594 30.324219 192 30.324219 C 252.816406 30.324219 302.296875 79.804688 302.296875 140.625 C 302.296875 201.441406 252.816406 250.921875 192 250.921875 Z M 192 250.921875 " />
</g><g id="Tracking_free_icon_iN0joc8-2"><path style=" stroke:none;fill-rule:nonzero;fill:#2E4343;fill-opacity:1;" d="M 204.085938 227.585938 C 242.847656 222.226562 273.601562 191.46875 278.960938 152.710938 C 240.199219 158.070312 209.445312 188.828125 204.085938 227.585938 Z M 204.085938 227.585938 " />
</g></g>
</svg>