<svg xmlns="http://www.w3.org/2000/svg" width="100%" height="100%" viewBox="0 0 384 384" version="1.1" class="iconadda">
<g id="surface299821">
<g id="Twitter_free_icon_aOhuCKx-0"><path style=" stroke:none;fill-rule:nonzero;fill:#FFFFFF;fill-opacity:1;" d="M 344.542969 113.808594 C 360.070312 102.695312 373.4375 88.847656 384 72.945312 L 384 72.929688 C 369.710938 79.1875 354.511719 83.34375 338.640625 85.363281 L 338.640625 85.359375 C 355.121094 75.585938 367.445312 60.105469 373.28125 41.855469 C 357.847656 51.003906 340.964844 57.449219 323.359375 60.910156 C 308.886719 45.445312 288.792969 36.460938 267.613281 35.996094 C 246.4375 35.53125 225.96875 43.625 210.832031 58.441406 C 195.695312 73.261719 187.167969 93.554688 187.183594 114.734375 C 187.183594 120.972656 187.710938 126.972656 189.007812 132.6875 C 123.566406 129.488281 65.648438 98.128906 26.734375 50.335938 C 19.699219 62.417969 15.980469 76.144531 15.953125 90.128906 C 15.953125 117.394531 29.984375 141.554688 50.929688 155.554688 L 50.929688 155.550781 C 38.464844 155.214844 26.269531 151.890625 15.359375 145.855469 L 15.359375 146.71875 C 15.378906 164.898438 21.664062 182.515625 33.152344 196.605469 C 44.636719 210.695312 60.628906 220.398438 78.433594 224.078125 C 72.019531 225.839844 65.042969 226.671875 57.792969 226.671875 C 52.753906 226.671875 47.664062 226.382812 42.898438 225.328125 C 53.089844 256.496094 82.050781 279.425781 116.449219 280.175781 C 88.578125 301.960938 54.207031 313.78125 18.832031 313.742188 C 12.382812 313.742188 6.191406 313.453125 0 312.671875 C 36 335.863281 77.945312 348.136719 120.769531 348 C 259.699219 348 350.242188 232.097656 344.546875 113.808594 Z M 344.542969 113.808594 " />
</g></g>
</svg>